<svg width="1411" height="1880" viewBox="0 0 1411 1880" fill="none" xmlns="http://www.w3.org/2000/svg">
<g clip-path="url(#clip0_3321_22)">
<path fill-rule="evenodd" clip-rule="evenodd" d="M149.427 735.493H1261.4C1343.6 735.493 1410.84 802.747 1410.84 884.933V1730.28C1410.84 1812.47 1343.6 1879.71 1261.4 1879.71H149.427C67.2404 1879.71 0 1812.47 0 1730.28V884.933C0 802.747 67.2404 735.493 149.427 735.493Z" fill="#1C3340"/>
<path fill-rule="evenodd" clip-rule="evenodd" d="M705.414 0.00010346C1001.36 0.00010346 1243.49 242.12 1243.49 538.08V643.507H1043.55V538.08C1043.55 352.093 891.4 199.947 705.414 199.947C519.427 199.947 367.267 352.093 367.267 538.08V643.507H167.32V538.08C167.32 242.12 409.454 0.00010346 705.414 0.00010346Z" fill="#1C3340"/>
<path fill-rule="evenodd" clip-rule="evenodd" d="M408.24 1257.21C436.667 1228.79 483.16 1228.79 511.6 1257.21L622.72 1368.34L899.227 1091.83C927.654 1063.4 974.16 1063.4 1002.59 1091.83C1031.01 1120.25 1031.01 1166.76 1002.59 1195.19L674.4 1523.38C645.973 1551.81 599.467 1551.81 571.04 1523.38L408.24 1360.57C379.813 1332.14 379.813 1285.64 408.24 1257.21Z" fill="white"/>
</g>
<defs>
<clipPath id="clip0_3321_22">
<rect width="1411" height="1880" fill="white"/>
</clipPath>
</defs>
</svg>
