<svg width="2120" height="1880" viewBox="0 0 2120 1880" fill="none" xmlns="http://www.w3.org/2000/svg">
<g clip-path="url(#clip0_3324_2)">
<path fill-rule="evenodd" clip-rule="evenodd" d="M149.44 735.493H1261.41C1343.6 735.493 1410.84 802.747 1410.84 884.933V1730.28C1410.84 1812.47 1343.6 1879.71 1261.41 1879.71H149.44C67.2401 1879.71 0 1812.47 0 1730.28V884.933C0 802.747 67.2401 735.493 149.44 735.493ZM796.546 1298.39V1488.41C796.546 1538.53 755.547 1579.53 705.427 1579.53H705.413C655.293 1579.53 614.293 1538.53 614.293 1488.41V1298.41C580.16 1271.45 558.253 1229.71 558.253 1182.85C558.253 1101.59 624.146 1035.69 705.413 1035.69C786.68 1035.69 852.573 1101.59 852.573 1182.85C852.573 1229.71 830.666 1271.44 796.546 1298.39Z" fill="#1C3340"/>
<path fill-rule="evenodd" clip-rule="evenodd" d="M1581.64 -0.000133927C1285.68 -0.000133927 1043.56 242.12 1043.56 538.08V919.96C1043.56 957.6 1047.49 994.36 1054.93 1029.88H1261.96C1250.01 995.373 1243.51 958.387 1243.51 919.96V538.08C1243.51 352.093 1395.65 199.947 1581.64 199.947C1767.63 199.947 1919.77 352.093 1919.77 538.08H2119.72C2119.72 242.12 1877.59 -0.000133927 1581.64 -0.000133927Z" fill="#1C3340"/>
<path fill-rule="evenodd" clip-rule="evenodd" d="M1581.64 0.00010346C1877.59 0.00010346 2119.72 242.12 2119.72 538.08V643.507H1919.77V538.08C1919.77 352.093 1767.63 199.947 1581.64 199.947C1395.65 199.947 1243.51 352.093 1243.51 538.08V643.507H1043.56V538.08C1043.56 242.12 1285.68 0.00010346 1581.64 0.00010346Z" fill="#1C3340"/>
</g>
<defs>
<clipPath id="clip0_3324_2">
<rect width="2120" height="1880" fill="white"/>
</clipPath>
</defs>
</svg>
